<?xml version="1.0" encoding="UTF-8"?><svg id="Layer_2" xmlns="http://www.w3.org/2000/svg" viewBox="0 0 358 95.32"><defs><style>.cls-1,.cls-2{fill:#007da7;}.cls-3,.cls-2{fill-rule:evenodd;}.cls-3,.cls-4{fill:#fff;}.cls-2{stroke:#fff;stroke-miterlimit:10;stroke-width:3px;}.cls-5{letter-spacing:-.01em;}.cls-4{font-family:Roboto-Medium, Roboto;font-size:36px;font-weight:500;}</style></defs><g id="Layer_1-2"><rect class="cls-1" width="358" height="92"/><path class="cls-2" d="M3.03,57.32c.38,1.43,1.63,2.82,2.25,3.55l17.01,21.1c6.28,7.13,3.67,6.24,15.86,6.24,7.26,0,14.52,0,21.78,0,4.59,0,6.34,.67,9.22-1.99,2.45-2.26,7.13-8.85,9.78-12.02,1.62-1.94,3.14-4.02,4.83-6.07,10.77-13.08,10.03-8.69,4.35-31.43-4.46-17.85-1.67-17.43-11.33-21.81L54.37,4.23c-8.85-4.04-7.3-2.93-15.6,.89-4.89,2.25-10.51,4.74-15.09,7.14-4.65,2.43-11.67,3.86-13.08,8.73-1.28,4.42-8.28,33.61-7.56,36.33Z"/><path class="cls-3" d="M49,17.3c15.43,.92,27.79,13.27,28.7,28.7h-3.48c-.32-4.77-1.87-9.2-4.34-12.97-3.06,3.79-6.32,7.84-9.37,11.62-1.79,2.17-3.85,2.72-6.13,1.98-2.43-.79-4.21-3.09-6.25-4.97,.55-.41,1.13-.77,1.74-1.02l.41,.36c1.48,1.33,3,3.31,4.89,3.88,1.18,.36,2.26,.1,3.18-1.18,3.33-4.08,6.87-8.44,10.21-12.53-4.61-5.91-11.61-9.86-19.55-10.39v-3.48h0Zm-4.56,23.34c-1.48,1.33-3,3.31-4.89,3.88-.72,.22-1.41,.21-2.04-.13-.14,.67-.21,1.35-.24,2.04,.97,.26,2,.19,3.07-.16,4.51-1.47,6.79-8.16,12.67-7.68,2.67,.22,4.28,1.79,5.13,3.92l1.59-1.95c-1.3-2.28-3.39-3.86-6.25-4.04-4.3-.25-6.06,1.45-9.04,4.12h0Zm14.47,6.51c0,.21,0,.43-.02,.64,.32,.16,.62,.34,.92,.55l.11,.08,.09,.11,1.09,1.3c.04-.24,.08-.48,.1-.73,.15-1.21,.16-2.43,.03-3.61-.71,.75-1.49,1.31-2.33,1.66h0Zm-.88,5.46l.08,.06,1.38,1.65c-1.13,1.84-2.77,3.2-4.92,3.79-1.38,.38-2.55,.53-3.6,.48-2.67-.12-4.37-1.72-6.77-4.06-1.43-1.4-3.08-3.65-5.19-3.72-.46-.02-.91,.08-1.34,.26-.21-.85-.31-1.75-.37-2.63,.51-.18,1.01-.28,1.52-.28,1.04,0,2.08,.37,3.12,1.15,1.68,1.48,3.02,2.81,4.46,4.15,2.91,2.7,4.91,4.66,9.07,2.18,1.27-.76,2.07-1.82,2.57-3.03h0Zm-24.25-.92l-8.64,10.35c-2.49-3.79-4.06-8.24-4.38-13.03h-3.48c.92,15.43,13.27,27.79,28.7,28.7v-3.48c-7.95-.53-14.96-4.49-19.58-10.42l8.27-9.94c-.36-.69-.67-1.43-.9-2.19h0Zm.67-10.66c-.38,.79-.68,1.62-.9,2.49l-8.47-10.45c-2.45,3.77-4,8.19-4.32,12.94h-3.48c.92-15.43,13.27-27.79,28.7-28.7v3.48c-7.96,.53-14.97,4.5-19.58,10.42l8.04,9.82h0Zm10.12-2.2c-.75-.21-1.56-.31-2.45-.24-4.7,.38-6.12,4.97-5.87,9.4,.16,3,.68,6.01,3.43,7.65,1.98,1.18,3.47,1.36,4.81,.92,.59,.56,1.2,1.09,1.83,1.56-.66,.27-1.36,.44-2.15,.47-1.05,.05-2.22-.1-3.6-.48-3.89-1.06-6.12-4.67-6.64-9.02-.72-6,1.9-12.22,7.73-12.57,2-.12,3.45,.19,4.73,.82-.59,.44-1.18,.94-1.81,1.49h0Zm3.5,14.54l.25-.23c1.44-1.33,2.78-2.66,4.46-4.15,1.04-.78,2.08-1.16,3.12-1.15,.97,0,1.94,.35,2.91,1.02l11.04,13.17c2.48-3.79,4.04-8.23,4.37-13.01h3.48c-.92,15.43-13.27,27.79-28.7,28.7v-3.48c7.96-.53,14.98-4.5,19.59-10.43-3.31-3.96-6.86-8.22-10.17-12.18-.86-.75-1.76-1.18-2.71-1.15-2.11,.07-3.76,2.32-5.19,3.72l-.57,.55c-.62-.32-1.22-.8-1.87-1.39Z"/><text class="cls-4" transform="translate(101.47 85.57) scale(.9 1)"><tspan class="cls-5" x="0" y="0">K</tspan><tspan x="22.29" y="0">ubeMQ</tspan></text></g></svg>